<svg xmlns="http://www.w3.org/2000/svg" viewBox="35.43 35.45 885.83 448.9" role="img" aria-labelledby="title"><title>OXXO</title><g transform="translate(827.88999,968.22013)"><path d="M-792.45694-878.04836C-792.45694-907.6486-768.68375-931.6666-739.32839-931.6666H40.118862c29.33088 0 53.12856 24.018 53.12856 53.61824v339.16581c0 29.6002-23.79768 53.59373-53.12856 53.59373h-779.44725c-29.35536 0-53.12855-23.99353-53.12855-53.59373z" fill="#fff"/><path d="M-791.84486-883.45915c0-27.22535 21.88798-49.30915 48.86848-49.30915H44.525842c26.98049 0 48.84399 22.0838 48.84399 49.30915v1.56693H-791.84486zM93.369832-534.40212v1.22416c0 27.22532-21.8635 49.30917-48.84399 49.30917h-787.50222c-26.9805 0-48.86848-22.08385-48.86848-49.30917v-1.22416z" fill="#fbb110"/><path d="M-179.20167-708.84494c0 68.92021 55.35652 124.79088 123.664662 124.79088 68.28365 0 123.66466-55.87067 123.66466-124.79088 0-68.9447-55.38101-124.81537-123.66466-124.81537-68.308142 0-123.664662 55.87067-123.664662 124.81537zm-589.6045 0c0 68.92021 55.38101 124.79088 123.68915 124.79088 68.28365 0 123.66466-55.87067 123.66466-124.79088 0-68.9447-55.38101-124.81537-123.66466-124.81537-68.30814 0-123.68915 55.87067-123.68915 124.81537zM93.369832-558.02841h-609.754172c10.99296-7.78566 21.22694-18.43566 32.39128-32.80749l62.11388-79.987c7.893 10.064 18.285 23.294 27.128 34.595l30.187-40.52-26.393-33.909 63.216-81.431c20.076-25.829-18.313-56.189-38.389-30.359l-55.871 71.981-56.801-72.935c-20.101-25.756-58.417-25.189-38.317.457l64.195 82.313-69.459 89.437c-24.679 31.779-49.309 60.914-98.202 63.167h-171.26v-300.238h606.547c-10.43 7.688-20.272 17.996-30.947 31.755l-62.089 79.962-27.152-34.57-30.163 40.52 26.393 33.885-63.24 81.431c-20.052 25.83 18.338 56.189 38.389 30.359l55.895-71.956 56.801 72.911c20.1 25.781 58.417 25.348 38.316-.433l-64.195-82.337 69.459-89.413c22.647-29.233 45.294-56.214 86.769-62.114H93.369832zM-129.57422-708.84494c0-41.27868 33.15026-74.72274 74.037212-74.72274 40.88695 0 74.01272 33.44406 74.01272 74.72274 0 41.25468-33.12577 74.69874-74.01272 74.69874-40.886952 0-74.037212-33.44406-74.037212-74.69874zm-589.58 0c0-41.27868 33.15026-74.72274 74.0372-74.72274 40.86246 0 74.01272 33.44406 74.01272 74.72274 0 41.25468-33.15026 74.69874-74.01272 74.69874-40.887 0-74.0372-33.44406-74.0372-74.69874z" fill="#e70020"/></g></svg>